<svg width="162" height="162" viewBox="0 0 162 162" fill="none" xmlns="http://www.w3.org/2000/svg">
<path d="M135.674 129.91L116.923 101.126C116.723 100.82 116.403 100.603 116.032 100.519C115.66 100.437 115.27 100.495 114.943 100.682L111.759 102.52L106.043 89.0733C104.974 86.5595 105.748 83.7025 107.968 81.9677L119.757 72.7438C121.108 71.5506 121.488 69.7527 120.724 68.1627C119.968 66.5874 118.308 65.665 116.455 65.8165C114.048 66.0149 110.586 67.6224 108.923 68.3933L108.78 68.459L118.988 55.9625C120.209 54.469 120.169 52.411 118.895 50.9604C118.051 50.0005 116.798 49.4776 115.478 49.487C114.15 49.5111 112.929 50.093 112.146 51.0583L107.31 56.7575L112.202 45.5078C112.638 44.4876 112.575 43.348 112.03 42.38C111.451 41.3531 110.389 40.6117 109.121 40.3449C107.115 39.9212 104.977 40.8101 104.009 42.5409L99.237 52.7354L100.131 46.4141C100.423 45.5266 100.326 44.5962 99.8466 43.7743C99.3188 42.868 98.3736 42.2098 97.249 41.9657C95.2696 41.5354 93.207 42.4859 92.4583 44.1752C92.4296 44.2382 92.4081 44.3039 92.3894 44.3696L89.3701 55.8981L88.3747 51.6495C88.3933 50.9054 88.1151 50.1908 87.5786 49.6157C86.9489 48.9413 86.0195 48.5364 85.0269 48.5056C83.3286 48.4493 81.8426 49.4736 81.4525 50.9296C81.4224 51.0448 81.4066 51.1628 81.4095 51.2821L81.7178 66.0699C81.7336 66.8005 82.3719 67.3837 83.1522 67.3837H83.1809C83.9726 67.369 84.6023 66.7576 84.5865 66.0162L84.2825 51.4765C84.3872 51.313 84.6712 51.1642 84.9337 51.1856C85.1345 51.191 85.3095 51.262 85.417 51.3773C85.5203 51.4873 85.5088 51.5838 85.506 51.616C85.4888 51.7581 85.4974 51.9015 85.5318 52.041L87.8927 62.1162C87.9071 62.1792 87.9501 62.2275 87.9731 62.2878C88.0103 62.383 88.0433 62.4768 88.1021 62.5613C88.1509 62.631 88.2169 62.6833 88.2786 62.7423C88.3446 62.8067 88.4048 62.875 88.4851 62.926C88.564 62.9769 88.6529 63.0037 88.7419 63.0386C88.8136 63.0681 88.8738 63.1137 88.9527 63.1311C88.9671 63.1351 88.9814 63.1311 88.9972 63.1324C89.0818 63.1499 89.1707 63.1405 89.2597 63.1432C89.3615 63.1458 89.4633 63.1579 89.5609 63.1391C89.5752 63.1365 89.5881 63.1418 89.601 63.1391C89.6742 63.1244 89.7301 63.0828 89.7976 63.0574C89.8937 63.0225 89.9883 62.9957 90.0744 62.9434C90.1533 62.8951 90.2135 62.8308 90.2795 62.7691C90.3455 62.7101 90.4143 62.6565 90.466 62.5854C90.5248 62.5063 90.5563 62.4165 90.5951 62.328C90.6223 62.265 90.6682 62.2141 90.6869 62.147L95.1448 45.1271C95.3887 44.694 96.0241 44.45 96.6007 44.5747C96.9263 44.6458 97.1902 44.8201 97.3279 45.0547C97.4054 45.1874 97.4756 45.3979 97.3752 45.6566C97.3423 45.7465 97.3164 45.839 97.3035 45.9342L95.0645 61.7743C95.0602 61.8011 95.0717 61.8253 95.0702 61.8521C95.0631 61.9486 95.076 62.0384 95.0903 62.1323C95.1032 62.2127 95.109 62.2918 95.1362 62.3682C95.1663 62.4514 95.2122 62.5224 95.2581 62.5988C95.3026 62.6726 95.3428 62.7463 95.403 62.812C95.4589 62.8737 95.5292 62.922 95.5981 62.9729C95.6755 63.0319 95.7516 63.0895 95.8419 63.1324C95.8677 63.1445 95.8835 63.1673 95.9108 63.178C95.9739 63.2035 96.0413 63.2008 96.1058 63.2169C96.1718 63.2343 96.2278 63.2692 96.298 63.2786C96.3525 63.2853 96.4071 63.288 96.4616 63.2893H96.4716H96.4874C96.6681 63.2893 96.8417 63.2558 97.0037 63.1968C97.0253 63.1887 97.0425 63.1727 97.064 63.1633C97.2046 63.1043 97.3351 63.0319 97.4484 62.9367C97.4914 62.9005 97.5201 62.8496 97.5588 62.808C97.6377 62.7222 97.7123 62.635 97.7668 62.5318C97.7754 62.5144 97.7926 62.5037 97.8012 62.4862L106.592 43.6979C106.919 43.1161 107.741 42.7997 108.494 42.9565C108.942 43.0504 109.306 43.2944 109.493 43.6255C109.603 43.8213 109.701 44.131 109.541 44.501L101.267 63.5253C101.179 63.725 101.162 63.9301 101.179 64.1312C101.007 64.6447 101.171 65.2252 101.65 65.5805C102.269 66.0417 103.173 65.9438 103.663 65.3633L114.412 52.6966C114.682 52.3654 115.09 52.171 115.533 52.1643C115.964 52.1335 116.395 52.3346 116.677 52.6577C117.103 53.143 117.116 53.8308 116.707 54.3322L102.827 71.3213C102.424 71.8147 102.437 72.5025 102.857 72.9838C103.279 73.4651 104.001 73.6099 104.596 73.3404L110.197 70.7904C111.468 70.2019 114.838 68.6359 116.706 68.4818C117.615 68.408 118.008 69.0556 118.106 69.2567C118.205 69.4631 118.475 70.1817 117.851 70.7368L106.126 79.9071C102.955 82.3873 101.85 86.467 103.375 90.06L109.278 103.948L95.3184 112.007L85.2076 94.6318C85.1775 94.5795 85.1259 94.5473 85.09 94.5004C87.93 87.2486 91.3108 76.8785 92.5616 72.9784C92.9962 71.627 92.3909 70.1764 91.0899 69.4511L90.4086 69.0717C86.16 66.704 83.5538 70.5437 82.5498 72.0238L80.1659 75.7764L77.9584 48.9024C77.6715 46.6635 75.4784 45.0413 73.0873 45.2947C71.8825 45.4193 70.8124 45.9838 70.0738 46.8834C69.3351 47.7816 69.0281 48.8931 69.1988 49.9079L69.5861 54.9382L65.3404 44.0371C64.8111 42.9565 63.8386 42.1427 62.6022 41.7472C61.3443 41.3437 59.9443 41.4402 58.7667 42.0154C57.6408 42.565 56.8246 43.4794 56.4746 44.5895C56.1462 45.6245 56.2638 46.7118 56.7988 47.6677L59.7708 55.9705L56.4359 51.2446C55.0317 49.6063 52.4197 49.314 50.6153 50.5984C48.8998 51.8184 48.5369 54.0064 49.759 55.6246L53.943 62.8656C53.0021 62.1913 51.9894 61.537 50.9007 60.9458C48.3863 59.5837 46.8559 59.9751 46.0125 60.5436C44.8392 61.3346 44.548 62.7932 44.7761 63.8162C44.9553 64.6139 45.7514 65.8353 49.049 69.199L49.1006 69.2459C53.3148 74.2936 55.4606 79.1911 55.8493 84.6598C56.2165 89.812 55.703 95.6467 54.3489 102.006L52.1056 100.523C51.7872 100.314 51.3956 100.233 51.0098 100.3C50.6268 100.367 50.2911 100.578 50.0789 100.882L32.0835 126.528C31.6532 127.141 31.8281 127.96 32.475 128.371L54.8438 142.588C55.0905 142.745 55.3716 142.82 55.6499 142.82C56.0859 142.82 56.5148 142.635 56.7959 142.289L76.2945 118.206C76.5283 117.917 76.6259 117.551 76.5671 117.191C76.5068 116.832 76.296 116.512 75.9776 116.303L73.6682 114.776L82.1022 101.118C82.5741 100.355 83.1378 99.1874 83.7575 97.7596L92.8742 113.425L89.5365 115.352C88.8667 115.738 88.6558 116.556 89.0632 117.186L101.313 136.138C101.582 136.555 102.056 136.785 102.54 136.785C102.793 136.785 103.048 136.724 103.28 136.592C103.96 136.209 104.177 135.386 103.767 134.752L92.2532 116.935L115.223 103.675L133.224 131.307C133.637 131.94 134.515 132.143 135.196 131.755C135.873 131.37 136.087 130.546 135.675 129.913L135.674 129.91ZM79.6179 99.7733L71.3173 113.216L56.9136 103.696C58.5143 96.6495 59.1196 90.1834 58.7151 84.4774C58.2848 78.4484 55.9482 73.083 51.2923 67.5124L51.1661 67.3837C48.1095 64.2667 47.6433 63.4086 47.586 63.2638C47.5415 63.0627 47.6218 62.7664 47.6921 62.7141C47.6978 62.7141 48.1439 62.5466 49.4607 63.2611C55.2239 66.3943 58.9647 71.5626 59.002 71.6149C59.0235 71.6458 59.0579 71.6605 59.0823 71.69C59.154 71.7745 59.2329 71.8482 59.3218 71.9126C59.3663 71.9447 59.405 71.9809 59.4538 72.0091C59.58 72.0801 59.7163 72.1324 59.8583 72.1646C59.9157 72.178 59.9716 72.1794 60.0304 72.1861C60.0863 72.1928 60.1409 72.2075 60.1982 72.2075C60.2542 72.2075 60.3101 72.1941 60.366 72.1887C60.4134 72.1834 60.4578 72.182 60.5037 72.1727C60.6314 72.1458 60.7576 72.107 60.8781 72.0466C60.8953 72.0372 60.9054 72.0225 60.9226 72.0131C60.9441 72.001 60.9699 71.9997 60.9914 71.9863C61.0603 71.9434 61.1019 71.879 61.1592 71.8281C61.2252 71.7705 61.2941 71.7195 61.3457 71.6525C61.4002 71.5814 61.4332 71.505 61.4719 71.4272C61.5121 71.3468 61.5551 71.2717 61.5781 71.1859C61.5982 71.1108 61.5967 71.0358 61.6025 70.9593C61.6096 70.8628 61.6197 70.7703 61.6039 70.6724C61.5924 70.6014 61.5609 70.537 61.5365 70.4673C61.5092 70.3882 61.5035 70.3051 61.459 70.23L52.239 54.2719C52.206 54.2129 52.1658 54.1566 52.1243 54.1043C51.7714 53.6659 51.8689 53.076 52.3523 52.7328C52.9189 52.3292 53.7623 52.415 54.118 52.8213L63.4112 66.0042C63.4183 66.0149 63.4298 66.0189 63.437 66.0283C63.5374 66.1637 63.6579 66.279 63.7999 66.3702C63.8286 66.3876 63.8601 66.3957 63.8888 66.4117C64.0064 66.4761 64.1284 66.5257 64.2603 66.5565C64.3163 66.5699 64.3693 66.574 64.4253 66.5807C64.4869 66.5887 64.5443 66.6075 64.6074 66.6075C64.6576 66.6075 64.7093 66.5887 64.7595 66.5847C64.824 66.578 64.8843 66.5699 64.9488 66.5552C64.9861 66.5458 65.0248 66.5498 65.0636 66.5378C65.1252 66.519 65.1683 66.4774 65.2242 66.4506C65.2801 66.4251 65.3433 66.4184 65.3963 66.3849C65.425 66.3675 65.4394 66.3393 65.4666 66.3192C65.5469 66.2616 65.6115 66.1959 65.676 66.1248C65.7348 66.0618 65.7922 66.0015 65.8367 65.9304C65.8826 65.8554 65.9113 65.7763 65.9414 65.6945C65.9715 65.614 66.0002 65.5363 66.0131 65.4518C66.026 65.3687 66.0203 65.2883 66.016 65.2038C66.0117 65.1113 66.0045 65.0241 65.9801 64.933C65.9715 64.9021 65.9801 64.8713 65.9672 64.8391L59.4782 46.7051C59.4481 46.6233 59.4108 46.5442 59.3663 46.4704C59.1569 46.1232 59.1052 45.725 59.2243 45.3496C59.3534 44.9421 59.6618 44.6015 60.0921 44.3924C60.5726 44.1578 61.1506 44.1189 61.6699 44.2838C62.1547 44.4393 62.5319 44.7477 62.6868 45.0547L70.4051 64.8807C70.4166 64.9088 70.4409 64.9276 70.4539 64.9544C70.4911 65.0335 70.5414 65.0992 70.5944 65.1689C70.6518 65.2467 70.7063 65.3231 70.7795 65.3875C70.834 65.4357 70.8971 65.4692 70.9587 65.5095C71.0491 65.5671 71.1366 65.6221 71.2384 65.6596C71.3102 65.6864 71.3848 65.6958 71.4608 65.7119C71.564 65.7334 71.6645 65.7521 71.7706 65.7508C71.8007 65.7508 71.8265 65.7629 71.8567 65.7615C71.9255 65.7575 71.9829 65.7253 72.0489 65.7119C72.1134 65.6985 72.1794 65.7065 72.2439 65.6838C72.2726 65.6744 72.2913 65.6529 72.3185 65.6409C72.4118 65.6033 72.4906 65.551 72.5724 65.4961C72.6441 65.4478 72.7173 65.4049 72.7775 65.3459C72.8406 65.2842 72.8865 65.2132 72.9367 65.1421C72.9884 65.0684 73.0386 65 73.0744 64.9182C73.106 64.8445 73.1189 64.7654 73.1361 64.6863C73.1562 64.5938 73.1763 64.504 73.1748 64.4074C73.1748 64.3793 73.1877 64.3551 73.1863 64.3283L72.0489 49.6143C71.9857 49.2229 72.0933 48.8327 72.3515 48.519C72.6111 48.2039 72.9841 48.0069 73.4058 47.9626C74.2535 47.8755 75.0108 48.4426 75.1055 49.1692L77.6543 80.2141C77.7016 80.7973 78.1492 81.2839 78.7588 81.4167C79.3755 81.5534 79.9995 81.2973 80.3179 80.7959L84.9953 73.4316C87.0924 70.3453 88.0319 70.8709 88.9412 71.379L89.624 71.7584C89.7961 71.8549 89.875 72.0359 89.8176 72.2115C86.2504 83.3325 81.6978 96.4135 79.6208 99.7746L79.6179 99.7733Z" fill="black"/>
<path d="M72.2972 37.2767C72.5668 37.6976 73.043 37.9309 73.5307 37.9309C73.7803 37.9309 74.0342 37.8706 74.2637 37.7419C74.945 37.3625 75.1673 36.5406 74.7628 35.9038L68.7514 26.4734C68.3455 25.838 67.4648 25.6275 66.7849 26.0082C66.1036 26.3876 65.8813 27.2095 66.2858 27.8463L72.2972 37.2767Z" fill="black"/>
<path d="M88.0405 40.2156C88.2012 40.2705 88.369 40.2973 88.5311 40.2973C89.1163 40.2973 89.6671 39.9595 89.8779 39.4138L96.0227 23.6313C96.2938 22.9355 95.9108 22.166 95.1649 21.9126C94.4248 21.6605 93.5972 22.0198 93.3275 22.7143L87.1828 38.4968C86.9117 39.1926 87.2946 39.9622 88.0405 40.2156Z" fill="black"/>
<path d="M80.7501 30.8422C80.7744 30.8422 80.7988 30.8422 80.8232 30.8409C81.615 30.8047 82.2246 30.1746 82.1844 29.4358L81.7154 20.6048C81.6752 19.8647 81.0011 19.2882 80.2107 19.3325C79.419 19.3687 78.8094 19.9988 78.8495 20.7375L79.3186 29.5686C79.3559 30.2858 79.9913 30.8422 80.7501 30.8422Z" fill="black"/>
<path d="M26.8807 102.936C30.1654 102.936 32.8361 100.439 32.8361 97.3686C32.8361 94.2985 30.1654 91.8008 26.8807 91.8008C23.596 91.8008 20.9238 94.2985 20.9238 97.3686C20.9238 100.439 23.596 102.936 26.8807 102.936ZM26.8807 94.4821C28.5833 94.4821 29.9674 95.7772 29.9674 97.3686C29.9674 98.96 28.5818 100.255 26.8807 100.255C25.1796 100.255 23.7925 98.96 23.7925 97.3686C23.7925 95.7772 25.1781 94.4821 26.8807 94.4821Z" fill="#FFBF8F"/>
<path d="M140.036 114.638C142.575 114.638 144.64 112.708 144.64 110.335C144.64 107.962 142.575 106.031 140.036 106.031C137.497 106.031 135.432 107.962 135.432 110.335C135.432 112.708 137.497 114.638 140.036 114.638ZM140.036 108.104C141.352 108.104 142.422 109.105 142.422 110.335C142.422 111.565 141.351 112.566 140.036 112.566C138.721 112.566 137.649 111.565 137.649 110.335C137.649 109.105 138.72 108.104 140.036 108.104Z" fill="#FFE5D2"/>
<path d="M122.976 79.0218C122.648 79.2282 122.424 79.5513 122.36 79.916L121.16 86.6757C121.03 87.4064 121.559 88.0968 122.341 88.2175C122.42 88.2296 122.499 88.2363 122.576 88.2363C123.265 88.2363 123.873 87.7711 123.989 87.1155L124.938 81.7635L131.602 83.1993C131.984 83.2811 132.387 83.2141 132.716 83.0103C133.044 82.8079 133.268 82.4874 133.337 82.1268L134.775 74.5439C134.914 73.8146 134.394 73.1187 133.613 72.9887C132.822 72.8627 132.089 73.3467 131.951 74.0746L130.776 80.2686L124.097 78.8287C123.712 78.7456 123.305 78.8166 122.976 79.0218Z" fill="black"/>
<path d="M36.7443 51.4233C38.6563 51.4233 40.2054 49.9753 40.2054 48.1882C40.2054 46.4011 38.6563 44.9531 36.7443 44.9531C34.8323 44.9531 33.2832 46.4011 33.2832 48.1882C33.2832 49.9753 34.8323 51.4233 36.7443 51.4233Z" fill="#FF7710"/>
<path d="M123.136 42.6869C124.721 42.6869 126.005 41.4865 126.005 40.0056C126.005 38.5247 124.721 37.3242 123.136 37.3242C121.552 37.3242 120.268 38.5247 120.268 40.0056C120.268 41.4865 121.552 42.6869 123.136 42.6869Z" fill="#FF7710"/>
<path d="M83.8654 37.1771C82.8483 37.1771 82.0238 36.4064 82.0238 35.4557C82.0238 34.5051 82.8483 33.7344 83.8654 33.7344C84.8825 33.7344 85.707 34.5051 85.707 35.4557C85.707 36.4064 84.8825 37.1771 83.8654 37.1771Z" fill="#FF7710"/>
<path d="M143.557 44.533C143.069 44.8589 142.736 45.3689 142.64 45.9445L140.858 56.6144C140.663 57.7678 141.45 58.8576 142.612 59.0481C142.73 59.0671 142.847 59.0777 142.962 59.0777C143.986 59.0777 144.89 58.3434 145.062 57.3085L146.474 48.8606L156.38 51.1271C156.947 51.2562 157.547 51.1504 158.035 50.8287C158.523 50.5091 158.856 50.0034 158.958 49.4341L161.097 37.4648C161.304 36.3136 160.53 35.2153 159.37 35.01C158.193 34.8111 157.103 35.575 156.898 36.7241L155.152 46.501L145.222 44.2282C144.651 44.097 144.045 44.2092 143.557 44.533Z" fill="#FBBC04"/>
<path d="M2.44354 63.8887C2.5219 64.3586 2.79583 64.7798 3.20298 65.0516L10.749 70.0934C11.5641 70.6394 12.6746 70.4488 13.228 69.6695C13.2837 69.5907 13.3329 69.5091 13.3733 69.4252C13.7321 68.6799 13.4868 67.764 12.7549 67.2751L6.78044 63.2831L11.9897 56.8648C12.2874 56.497 12.4165 56.0236 12.3414 55.5552C12.2679 55.0875 11.9972 54.6679 11.5971 54.3936L3.18097 48.6366C2.37189 48.0821 1.25941 48.2603 0.695489 49.033C0.130447 49.8202 0.333428 50.8817 1.14163 51.4339L8.01644 56.1359L2.79409 62.5692C2.49324 62.9393 2.3668 63.4196 2.44354 63.8887Z" fill="#FBBC04"/>
</svg>
