<svg width="216" height="162" viewBox="0 0 216 162" fill="none" xmlns="http://www.w3.org/2000/svg">
<path d="M164.32 137.742L143.949 104.298C143.732 103.943 143.385 103.691 142.981 103.593C142.577 103.498 142.153 103.565 141.798 103.783L138.339 105.918L132.129 90.2947C130.968 87.374 131.808 84.0546 134.22 82.0389L147.028 71.322C148.496 69.9357 148.909 67.8468 148.078 65.9994C147.257 64.1691 145.454 63.0974 143.441 63.2734C140.826 63.504 137.064 65.3716 135.258 66.2673L135.102 66.3436L146.193 51.8244C147.519 50.0891 147.475 47.698 146.091 46.0126C145.175 44.8973 143.813 44.2898 142.379 44.3007C140.936 44.3288 139.61 45.0048 138.759 46.1263L133.505 52.7481L138.82 39.6775C139.294 38.4921 139.225 37.168 138.633 36.0434C138.004 34.8502 136.851 33.9888 135.473 33.6788C133.293 33.1866 130.971 34.2193 129.919 36.2303L124.735 48.075L125.705 40.7305C126.023 39.6993 125.917 38.6183 125.397 37.6634C124.823 36.6104 123.797 35.8456 122.575 35.5621C120.424 35.062 118.184 36.1665 117.37 38.1291C117.339 38.2024 117.316 38.2787 117.295 38.355L114.015 51.7496L112.934 46.8133C112.954 45.9488 112.652 45.1185 112.069 44.4503C111.385 43.6667 110.375 43.1963 109.296 43.1605C107.451 43.0951 105.837 44.2851 105.413 45.9768C105.38 46.1108 105.363 46.2478 105.366 46.3865L105.701 63.5678C105.719 64.4168 106.412 65.0944 107.26 65.0944H107.291C108.151 65.0772 108.835 64.3669 108.818 63.5055L108.488 46.6123C108.601 46.4223 108.91 46.2494 109.195 46.2743C109.413 46.2805 109.603 46.3631 109.72 46.4971C109.833 46.6248 109.82 46.737 109.817 46.7743C109.798 46.9395 109.808 47.1061 109.845 47.2681L112.41 58.9742C112.426 59.0474 112.472 59.1035 112.497 59.1736C112.538 59.2842 112.574 59.3932 112.637 59.4913C112.69 59.5723 112.762 59.6331 112.829 59.7016C112.901 59.7764 112.966 59.8558 113.054 59.915C113.139 59.9742 113.236 60.0054 113.332 60.0459C113.41 60.0801 113.476 60.1331 113.562 60.1534C113.577 60.158 113.593 60.1534 113.61 60.1549C113.702 60.1752 113.798 60.1643 113.895 60.1674C114.006 60.1705 114.116 60.1845 114.222 60.1627C114.238 60.1596 114.252 60.1658 114.266 60.1627C114.345 60.1456 114.406 60.0973 114.479 60.0677C114.584 60.0272 114.687 59.996 114.78 59.9353C114.866 59.8792 114.931 59.8044 115.003 59.7328C115.075 59.6642 115.149 59.6019 115.206 59.5194C115.269 59.4275 115.304 59.3231 115.346 59.2203C115.375 59.1471 115.425 59.0879 115.446 59.01L120.289 39.2351C120.554 38.732 121.244 38.4485 121.87 38.5933C122.224 38.6759 122.511 38.8784 122.661 39.151C122.745 39.3052 122.821 39.5498 122.712 39.8504C122.676 39.9548 122.648 40.0622 122.634 40.1728L120.202 58.577C120.197 58.6081 120.209 58.6362 120.208 58.6673C120.2 58.7795 120.214 58.8838 120.23 58.9929C120.244 59.0863 120.25 59.1782 120.279 59.267C120.312 59.3636 120.362 59.4462 120.412 59.535C120.46 59.6206 120.504 59.7063 120.569 59.7826C120.63 59.8543 120.706 59.9104 120.781 59.9695C120.865 60.0381 120.948 60.1051 121.046 60.1549C121.074 60.1689 121.091 60.1954 121.121 60.2079C121.189 60.2375 121.263 60.2344 121.333 60.253C121.405 60.2733 121.465 60.3138 121.542 60.3247C121.601 60.3325 121.66 60.3356 121.719 60.3372H121.73H121.747C121.944 60.3372 122.132 60.2982 122.308 60.2297C122.332 60.2203 122.35 60.2016 122.374 60.1907C122.527 60.1222 122.668 60.0381 122.791 59.9275C122.838 59.8854 122.869 59.8262 122.911 59.778C122.997 59.6783 123.078 59.577 123.137 59.4571C123.147 59.4368 123.165 59.4244 123.175 59.4041L132.726 37.5746C133.081 36.8986 133.974 36.531 134.792 36.7132C135.278 36.8222 135.674 37.1057 135.877 37.4905C135.997 37.7179 136.103 38.0777 135.93 38.5077L126.94 60.6113C126.845 60.8434 126.826 61.0817 126.845 61.3154C126.658 61.912 126.835 62.5865 127.356 62.9993C128.029 63.5351 129.011 63.4214 129.544 62.7469L141.222 48.0298C141.515 47.6451 141.957 47.4192 142.439 47.4114C142.908 47.3756 143.375 47.6093 143.682 47.9847C144.145 48.5485 144.159 49.3476 143.715 49.9302L128.635 69.6693C128.197 70.2425 128.211 71.0416 128.668 71.6008C129.126 72.16 129.91 72.3283 130.556 72.0152L136.642 69.0525C138.022 68.3686 141.684 66.5492 143.713 66.3701C144.701 66.2844 145.128 67.0368 145.234 67.2705C145.342 67.5103 145.635 68.3453 144.957 68.9901L132.219 79.6448C128.774 82.5265 127.574 87.2666 129.23 91.4412L135.643 107.577L120.477 116.941L109.493 96.7529C109.46 96.6921 109.404 96.6548 109.365 96.6002C112.45 88.1747 116.123 76.1259 117.482 71.5946C117.954 70.0245 117.297 68.339 115.883 67.4963L115.143 67.0555C110.528 64.3046 107.696 68.7658 106.605 70.4855L104.015 74.8455L101.617 43.6216C101.305 41.0202 98.9228 39.1354 96.3251 39.4298C95.0161 39.5747 93.8536 40.2305 93.0511 41.2757C92.2485 42.3193 91.9151 43.6107 92.1005 44.7898L92.5212 50.6343L87.9086 37.9687C87.3336 36.7132 86.2771 35.7677 84.9338 35.3082C83.5672 34.8393 82.0463 34.9515 80.7669 35.6197C79.5436 36.2584 78.657 37.3207 78.2767 38.6105C77.9199 39.813 78.0477 41.0763 78.6289 42.1869L81.8577 51.8337L78.2347 46.3429C76.7091 44.4394 73.8714 44.0998 71.911 45.592C70.0473 47.0095 69.653 49.5517 70.9807 51.4318L75.5263 59.8449C74.5041 59.0614 73.4039 58.3013 72.2211 57.6143C69.4894 56.0317 67.8267 56.4865 66.9104 57.147C65.6357 58.066 65.3194 59.7608 65.5672 60.9493C65.7619 61.8762 66.6268 63.2952 70.2094 67.2035L70.2655 67.258C74.8438 73.1227 77.175 78.813 77.5973 85.1668C77.9962 91.153 77.4384 97.9321 75.9673 105.32L73.5301 103.597C73.1842 103.354 72.7588 103.261 72.3396 103.339C71.9235 103.417 71.5589 103.661 71.3282 104.015L51.7777 133.812C51.3102 134.524 51.5003 135.476 52.2031 135.954L76.5049 152.472C76.773 152.654 77.0784 152.741 77.3807 152.741C77.8544 152.741 78.3204 152.526 78.6258 152.124L99.8095 124.143C100.063 123.807 100.169 123.382 100.106 122.964C100.04 122.547 99.811 122.174 99.4651 121.931L96.9562 120.157L106.119 104.289C106.632 103.403 107.244 102.046 107.917 100.387L117.822 118.589L114.196 120.827C113.468 121.276 113.239 122.226 113.682 122.958L126.99 144.977C127.282 145.462 127.797 145.73 128.323 145.73C128.598 145.73 128.875 145.658 129.128 145.506C129.866 145.06 130.101 144.104 129.656 143.367L117.147 122.667L142.102 107.26L161.659 139.365C162.108 140.1 163.061 140.336 163.801 139.885C164.537 139.438 164.769 138.48 164.322 137.745L164.32 137.742ZM103.42 102.727L94.4021 118.346L78.7536 107.284C80.4926 99.0972 81.1503 91.5845 80.7108 84.9549C80.2433 77.95 77.7048 71.7161 72.6466 65.2439L72.5094 65.0944C69.1887 61.4727 68.6822 60.4758 68.6199 60.3076C68.5716 60.0739 68.6588 59.7297 68.7352 59.6689C68.7414 59.6689 69.2261 59.4742 70.6566 60.3045C76.9179 63.9448 80.982 69.9497 81.0225 70.0104C81.0459 70.0463 81.0833 70.0634 81.1097 70.0977C81.1877 70.1958 81.2734 70.2815 81.37 70.3562C81.4183 70.3936 81.4604 70.4357 81.5133 70.4684C81.6505 70.5509 81.7985 70.6117 81.9528 70.6491C82.0151 70.6647 82.0759 70.6662 82.1398 70.674C82.2006 70.6818 82.2598 70.6989 82.3221 70.6989C82.3829 70.6989 82.4437 70.6834 82.5044 70.6771C82.5559 70.6709 82.6042 70.6693 82.654 70.6584C82.7927 70.6273 82.9298 70.5821 83.0607 70.512C83.0794 70.5011 83.0904 70.484 83.1091 70.4731C83.1324 70.459 83.1605 70.4575 83.1838 70.4419C83.2586 70.3921 83.3038 70.3173 83.3662 70.2581C83.4379 70.1911 83.5127 70.1319 83.5688 70.054C83.628 69.9715 83.6638 69.8827 83.7059 69.7924C83.7495 69.6989 83.7963 69.6117 83.8212 69.512C83.843 69.4247 83.8415 69.3375 83.8477 69.2487C83.8555 69.1366 83.8664 69.0291 83.8493 68.9154C83.8368 68.8328 83.8025 68.758 83.776 68.677C83.7464 68.5851 83.7402 68.4886 83.6919 68.4013L73.675 49.8601C73.6392 49.7916 73.5956 49.7262 73.5504 49.6654C73.167 49.156 73.273 48.4707 73.7981 48.0719C74.4137 47.603 75.33 47.7027 75.7164 48.1747L85.8127 63.4915C85.8205 63.5039 85.833 63.5086 85.8408 63.5195C85.9499 63.6769 86.0807 63.8108 86.235 63.9167C86.2662 63.937 86.3005 63.9463 86.3316 63.965C86.4594 64.0398 86.5919 64.0974 86.7352 64.1333C86.796 64.1488 86.8537 64.1535 86.9144 64.1613C86.9815 64.1706 87.0438 64.1924 87.1124 64.1924C87.1669 64.1924 87.223 64.1706 87.2775 64.166C87.3477 64.1582 87.4131 64.1488 87.4832 64.1317C87.5237 64.1208 87.5658 64.1255 87.6079 64.1115C87.6749 64.0896 87.7216 64.0414 87.7824 64.0102C87.8432 63.9806 87.9118 63.9728 87.9694 63.9339C88.0006 63.9136 88.0162 63.8809 88.0458 63.8575C88.133 63.7906 88.2032 63.7142 88.2733 63.6317C88.3372 63.5585 88.3995 63.4884 88.4478 63.4058C88.4977 63.3186 88.5289 63.2267 88.5616 63.1317C88.5943 63.0382 88.6255 62.9479 88.6395 62.8497C88.6535 62.7531 88.6473 62.6597 88.6426 62.5615C88.6379 62.4541 88.6301 62.3528 88.6037 62.2469C88.5943 62.2111 88.6037 62.1752 88.5896 62.1379L81.5398 41.0685C81.5071 40.9735 81.4666 40.8816 81.4183 40.7959C81.1908 40.3925 81.1347 39.9298 81.264 39.4937C81.4043 39.0201 81.7393 38.6245 82.2068 38.3815C82.7288 38.1089 83.3568 38.0637 83.9209 38.2553C84.4476 38.436 84.8575 38.7943 85.0258 39.151L93.411 62.1861C93.4235 62.2189 93.45 62.2407 93.464 62.2718C93.5045 62.3637 93.5591 62.44 93.6167 62.521C93.6791 62.6114 93.7383 62.7002 93.8178 62.775C93.877 62.831 93.9455 62.87 94.0126 62.9167C94.1107 62.9837 94.2058 63.0475 94.3164 63.0912C94.3943 63.1223 94.4754 63.1332 94.558 63.1519C94.6702 63.1768 94.7792 63.1986 94.8946 63.1971C94.9273 63.1971 94.9553 63.2111 94.9881 63.2095C95.0629 63.2049 95.1252 63.1675 95.1969 63.1519C95.267 63.1363 95.3387 63.1457 95.4088 63.1192C95.44 63.1083 95.4602 63.0834 95.4898 63.0694C95.5911 63.0257 95.6768 62.965 95.7656 62.9011C95.8436 62.845 95.923 62.7952 95.9885 62.7267C96.0571 62.655 96.1069 62.5725 96.1615 62.4899C96.2176 62.4042 96.2721 62.3248 96.3111 62.2298C96.3453 62.1441 96.3594 62.0522 96.3781 61.9603C96.3999 61.8528 96.4217 61.7484 96.4201 61.6363C96.4201 61.6036 96.4342 61.5755 96.4326 61.5444L95.1969 44.4487C95.1283 43.9939 95.2452 43.5406 95.5257 43.1761C95.8077 42.81 96.2129 42.581 96.671 42.5296C97.592 42.4284 98.4148 43.0873 98.5176 43.9315L101.287 80.0015C101.338 80.6791 101.824 81.2445 102.487 81.3987C103.157 81.5576 103.835 81.2601 104.181 80.6775L109.262 72.1211C111.54 68.5353 112.561 69.1459 113.549 69.7363L114.291 70.1771C114.478 70.2893 114.564 70.4995 114.501 70.7036C110.626 83.6247 105.68 98.8231 103.423 102.728L103.42 102.727Z" fill="black"/>
<path d="M95.4679 30.1149C95.7609 30.604 96.2782 30.875 96.808 30.875C97.0792 30.875 97.355 30.8049 97.6043 30.6554C98.3445 30.2146 98.5861 29.2597 98.1466 28.5198L91.6158 17.563C91.1748 16.8247 90.2179 16.5801 89.4793 17.0225C88.7391 17.4633 88.4976 18.4182 88.937 19.1581L95.4679 30.1149Z" fill="black"/>
<path d="M112.57 33.5308C112.745 33.5947 112.927 33.6258 113.103 33.6258C113.739 33.6258 114.338 33.2333 114.567 32.5993L121.242 14.2622C121.537 13.4537 121.121 12.5596 120.311 12.2652C119.506 11.9724 118.607 12.3898 118.314 13.1967L111.639 31.5339C111.344 32.3423 111.76 33.2364 112.57 33.5308Z" fill="black"/>
<path d="M104.651 22.6395C104.678 22.6395 104.704 22.6395 104.731 22.6379C105.591 22.5959 106.253 21.8637 106.21 21.0055L105.7 10.7449C105.656 9.88509 104.924 9.21528 104.065 9.26669C103.205 9.30875 102.543 10.0409 102.587 10.8992L103.096 21.1597C103.137 21.993 103.827 22.6395 104.651 22.6395Z" fill="black"/>
<path d="M57.9966 88.4209C61.5651 88.4209 64.4667 85.5189 64.4667 81.9518C64.4667 78.3846 61.5651 75.4827 57.9966 75.4827C54.428 75.4827 51.5249 78.3846 51.5249 81.9518C51.5249 85.5189 54.428 88.4209 57.9966 88.4209ZM57.9966 78.5981C59.8463 78.5981 61.35 80.1028 61.35 81.9518C61.35 83.8007 59.8447 85.3055 57.9966 85.3055C56.1484 85.3055 54.6415 83.8007 54.6415 81.9518C54.6415 80.1028 56.1469 78.5981 57.9966 78.5981Z" fill="#FFBF8F"/>
<path d="M169.061 120C171.819 120 174.062 117.757 174.062 115C174.062 112.243 171.819 110 169.061 110C166.302 110 164.058 112.243 164.058 115C164.058 117.757 166.302 120 169.061 120ZM169.061 112.408C170.491 112.408 171.653 113.571 171.653 115C171.653 116.429 170.489 117.592 169.061 117.592C167.632 117.592 166.467 116.429 166.467 115C166.467 113.571 167.631 112.408 169.061 112.408Z" fill="#FFE5D2"/>
<path d="M150.526 78.6168C150.169 78.8567 149.926 79.2321 149.856 79.6558L148.553 87.5096C148.411 88.3586 148.986 89.1608 149.836 89.301C149.921 89.315 150.007 89.3228 150.091 89.3228C150.839 89.3228 151.5 88.7823 151.626 88.0206L152.658 81.8023L159.898 83.4705C160.312 83.5656 160.75 83.4877 161.107 83.2509C161.464 83.0157 161.707 82.6434 161.782 82.2244L163.345 73.4141C163.496 72.5667 162.93 71.7583 162.082 71.6072C161.222 71.4607 160.426 72.0231 160.276 72.8689L159 80.0654L151.743 78.3925C151.325 78.2959 150.883 78.3785 150.526 78.6168Z" fill="black"/>
<path d="M56.8422 46.5516C58.9195 46.5516 60.6024 44.8693 60.6024 42.7929C60.6024 40.7165 58.9195 39.0342 56.8422 39.0342C54.765 39.0342 53.082 40.7165 53.082 42.7929C53.082 44.8693 54.765 46.5516 56.8422 46.5516Z" fill="#FF7710"/>
<path d="M150.701 36.4002C152.422 36.4002 153.817 35.0054 153.817 33.2848C153.817 31.5642 152.422 30.1694 150.701 30.1694C148.979 30.1694 147.584 31.5642 147.584 33.2848C147.584 35.0054 148.979 36.4002 150.701 36.4002Z" fill="#FF7710"/>
<path d="M108.036 30C106.931 30 106.035 29.1046 106.035 28C106.035 26.8954 106.931 26 108.036 26C109.141 26 110.037 26.8954 110.037 28C110.037 29.1046 109.141 30 108.036 30Z" fill="#FF7710"/>
<path d="M196.83 38.101C196.299 38.4796 195.938 39.0722 195.834 39.741L193.897 52.138C193.686 53.478 194.541 54.7443 195.804 54.9656C195.931 54.9877 196.058 55 196.184 55C197.296 55 198.278 54.1468 198.465 52.9445L199.999 43.1291L210.761 45.7625C211.378 45.9124 212.029 45.7895 212.559 45.4158C213.09 45.0445 213.451 44.4569 213.562 43.7955L215.886 29.8887C216.11 28.5512 215.269 27.2751 214.009 27.0366C212.73 26.8055 211.547 27.6931 211.324 29.0282L209.427 40.3876L198.639 37.7469C198.018 37.5945 197.36 37.7248 196.83 38.101Z" fill="#FBBC04"/>
<path d="M26.9105 61.0355C26.9956 61.5815 27.2932 62.0708 27.7356 62.3866L35.9337 68.2445C36.8193 68.8788 38.0258 68.6575 38.6269 67.7519C38.6874 67.6605 38.7409 67.5656 38.7848 67.4682C39.1747 66.6022 38.9081 65.538 38.113 64.97L31.6222 60.3319L37.2816 52.8746C37.6051 52.4474 37.7453 51.8973 37.6637 51.3531C37.5839 50.8097 37.2898 50.3221 36.8551 50.0034L27.7117 43.3146C26.8327 42.6703 25.624 42.8774 25.0114 43.7751C24.3975 44.6898 24.618 45.923 25.4961 46.5647L32.965 52.0278L27.2913 59.5024C26.9645 59.9324 26.8271 60.4904 26.9105 61.0355Z" fill="#FBBC04"/>
</svg>
