<svg width="80" height="81" viewBox="0 0 80 81" fill="none" xmlns="http://www.w3.org/2000/svg">
<path d="M62.1245 69.2826V24.48L45.1601 7.51562H27.214C24.162 7.51562 21.6875 9.99012 21.6875 13.0427V69.2826C21.6875 72.3347 24.162 74.8092 27.214 74.8092H56.598C59.65 74.8092 62.1245 72.3347 62.1245 69.2826Z" fill="#FFD1AD"/>
<path d="M50.6867 24.48H62.124L45.1602 7.51562V18.9535C45.1596 22.0056 47.6341 24.48 50.6867 24.48Z" fill="#FF7710"/>
<path d="M63.1356 23.4675L46.1711 6.50309C45.903 6.23493 45.5385 6.08398 45.159 6.08398H12.6732C8.83646 6.08398 5.71484 9.2056 5.71484 13.0429V69.2828C5.71484 73.1195 8.83646 76.2411 12.6737 76.2411H56.5969C60.4336 76.2411 63.5552 73.1195 63.5552 69.2828V24.4802C63.5552 24.1002 63.4043 23.7362 63.1356 23.4675ZM46.5913 10.973L58.6667 23.0484H50.686C49.592 23.0484 48.5637 22.6223 47.7903 21.8489C47.0168 21.0755 46.5908 20.0472 46.5913 18.9537V10.973ZM56.5969 73.3775H12.6732C10.4155 73.3775 8.57847 71.5405 8.57847 69.2828V13.0429C8.57847 10.7846 10.4155 8.94761 12.6732 8.94761H43.7277V18.9532C43.7272 20.8121 44.4514 22.5597 45.7654 23.8738C47.0795 25.1878 48.8271 25.912 50.686 25.912H60.6916V69.2828C60.6916 71.5405 58.8546 73.3775 56.5969 73.3775Z" fill="#0F172A"/>
<path d="M19.1593 33.6116H28.6327C29.4174 33.6116 30.0537 32.9754 30.0537 32.1905C30.0537 31.4057 29.4174 30.7695 28.6327 30.7695H19.1593C18.3746 30.7695 17.7383 31.4057 17.7383 32.1905C17.7383 32.9754 18.3746 33.6116 19.1593 33.6116Z" fill="#0F172A"/>
<path d="M47.8628 30.7695H37.3116C36.527 30.7695 35.8906 31.4057 35.8906 32.1905C35.8906 32.9754 36.527 33.6116 37.3116 33.6116H47.8628C48.6475 33.6116 49.2838 32.9754 49.2838 32.1905C49.2838 31.4057 48.6476 30.7695 47.8628 30.7695Z" fill="#0F172A"/>
<path d="M49.2847 40.1476C49.2847 39.3627 48.6484 38.7266 47.8637 38.7266H19.1593C18.3746 38.7266 17.7383 39.3627 17.7383 40.1476C17.7383 40.9324 18.3746 41.5686 19.1593 41.5686H47.8637C48.6485 41.5686 49.2847 40.9324 49.2847 40.1476Z" fill="#0F172A"/>
<path d="M19.1593 49.5256H26.4775C27.2622 49.5256 27.8985 48.8894 27.8985 48.1046C27.8985 47.3198 27.2622 46.6836 26.4775 46.6836H19.1593C18.3746 46.6836 17.7383 47.3198 17.7383 48.1046C17.7383 48.8894 18.3746 49.5256 19.1593 49.5256Z" fill="#0F172A"/>
<path d="M43.1765 48.1046C43.1765 47.3198 42.5401 46.6836 41.7554 46.6836H32.8741C32.0895 46.6836 31.4531 47.3198 31.4531 48.1046C31.4531 48.8894 32.0895 49.5256 32.8741 49.5256H41.7554C42.5403 49.5256 43.1765 48.8894 43.1765 48.1046Z" fill="#0F172A"/>
<path d="M44.8014 59.7977C44.0617 59.058 42.7957 59.4512 42.6052 60.4798L41.3826 67.0823C41.3135 67.4555 41.4324 67.8389 41.7009 68.1073C41.9696 68.376 42.3531 68.4948 42.7259 68.4257L49.3284 67.203C50.357 67.0125 50.7502 65.7465 50.0105 65.0068L44.8014 59.7977Z" fill="white"/>
<path fill-rule="evenodd" clip-rule="evenodd" d="M43.925 60.8499L42.7808 67.0285L48.9595 65.8843L43.925 60.8499ZM42.4784 67.0845C42.4785 67.0845 42.4785 67.0845 42.4786 67.0845L42.4784 67.0845ZM41.2648 60.2316C41.6552 58.123 44.2505 57.3169 45.7669 58.8333L50.976 64.0424C52.4924 65.5588 51.6864 68.1541 49.5777 68.5446L42.9754 69.7672C42.9753 69.7672 42.9753 69.7672 42.9752 69.7672C42.1611 69.918 41.3239 69.6587 40.7372 69.0721C40.1509 68.4859 39.8913 67.6488 40.0421 66.8341L40.0421 66.834L41.2648 60.2316Z" fill="#0F172A"/>
<path d="M71.7876 33.2575C71.2865 32.7564 70.4763 32.7493 69.9664 33.2415L44.6429 57.692C44.1203 58.1966 44.1129 59.0317 44.6266 59.5453L50.2971 65.2162C50.7981 65.7174 51.6084 65.7245 52.1182 65.2322L77.4418 40.7817C77.9644 40.2772 77.9717 39.4421 77.4581 38.9284L71.7876 33.2575Z" fill="#FF7710"/>
<path fill-rule="evenodd" clip-rule="evenodd" d="M70.869 34.2681L45.6389 58.6284L51.2175 64.2074L76.4475 39.8472L70.869 34.2681ZM69.0198 32.261C70.0649 31.2519 71.7259 31.2665 72.7531 32.2938L78.4236 37.9648C79.4766 39.0178 79.4615 40.7296 78.3902 41.764L53.0666 66.2145C52.0215 67.2236 50.3605 67.209 49.3333 66.1817L43.6628 60.5108C42.6099 59.4578 42.6249 57.7459 43.6962 56.7116L69.0198 32.261Z" fill="#0F172A"/>
</svg>
