<svg width="74" height="74" viewBox="0 0 74 74" fill="none" xmlns="http://www.w3.org/2000/svg">
<g clip-path="url(#clip0_4738_999)">
<path d="M34.9184 39.4306L37.9242 35.7202V30.8919C36.4856 31.8523 34.758 32.4135 32.9023 32.4135C30.8529 32.4135 29.0581 31.8353 27.6031 30.8739V35.7202L30.6095 39.4306H34.9184Z" fill="#F4BDA4"/>
<path d="M31.9391 32.3683C30.2883 32.217 28.8255 31.6818 27.6031 30.8739V35.7202L30.6095 39.4306H31.9391V32.3683Z" fill="#EFA78B"/>
<path d="M47.5057 39.1415L37.9243 35.4311L34.9185 39.1415H47.5057Z" fill="#FC5F61"/>
<path d="M15.8273 61.0702C16.756 61.0702 17.5098 61.8239 17.5098 62.7532V65.1628C17.5098 65.3638 17.6729 65.527 17.8739 65.527H26.5198C26.4413 65.304 26.3967 65.0657 26.3967 64.8167V41.3027C26.3967 40.1143 27.3695 39.1415 28.5579 39.1415H30.6096L27.6032 35.4311L13.9653 40.7184C13.9653 40.7184 8.91577 42.7943 8.91577 48.5507V61.0702H15.8273Z" fill="white"/>
<path d="M41.9553 39.1415L42.8541 37.3405L37.9243 35.4311L34.9185 39.1415H41.9553Z" fill="white"/>
<path d="M26.3967 41.3027C26.3967 40.1143 27.3695 39.1415 28.5579 39.1415H30.6163L27.61 35.4311L22.6807 37.3399L26.3967 44.7873V41.3027Z" fill="white"/>
<path d="M23.2588 70.655V69.1386C23.2588 67.9502 24.3761 67.1225 25.564 67.1225H28.847C27.802 67.1225 26.9252 66.2265 26.7282 65.2379H17.8739C17.6729 65.2379 17.5098 65.0748 17.5098 64.8738V62.4642C17.5098 61.5349 16.756 60.7812 15.8273 60.7812H8.91577V68.1946C8.91577 70.7471 10.9844 72.8157 13.5368 72.8157H25.2749C24.0871 72.8157 23.2588 71.8429 23.2588 70.655Z" fill="#F4BDA4"/>
<path d="M43.3227 16.9887C43.0777 17.1208 42.7982 17.1959 42.5018 17.1959C42.2669 17.1959 42.0377 17.171 41.8158 17.1236V23.7263C41.8158 23.7997 41.8119 23.8725 41.8102 23.9459C44.213 24.3095 46.0947 22.5735 46.0947 20.4416C46.0947 18.7801 44.956 17.3664 43.3227 16.9887Z" fill="#F4BDA4"/>
<path d="M23.7262 17.1959H22.588C22.3785 17.1959 22.1759 17.1699 21.98 17.1247C20.5719 17.6137 19.4473 18.8806 19.4473 20.4411C19.4473 22.5706 21.3245 24.3095 23.7313 23.9454C23.7296 23.8725 23.7262 23.7997 23.7262 23.7258V17.1959Z" fill="#F4BDA4"/>
<path d="M44.4383 17.4499C44.1035 17.2405 43.7286 17.0824 43.3227 16.9887C43.0777 17.1208 42.7982 17.1959 42.5024 17.1959C42.2669 17.1959 42.0377 17.171 41.8158 17.1236V23.7263C41.8158 23.7997 41.8119 23.8725 41.8102 23.9459C42.8089 24.0972 43.7173 23.885 44.4383 23.4327V17.4499Z" fill="#EFA78B"/>
<path d="M23.7262 23.4327C22.7116 22.797 22.0692 21.6865 22.0692 20.4411C22.0692 19.2233 22.7557 18.1861 23.7262 17.5561V17.1959H22.588C22.3785 17.1959 22.1759 17.1699 21.98 17.1247C20.5719 17.6137 19.4473 18.8806 19.4473 20.4411C19.4473 22.5706 21.325 24.3095 23.7313 23.9454C23.7296 23.8725 23.7262 23.7997 23.7262 23.7258V23.4327Z" fill="#EFA78B"/>
<path d="M39.3735 13.875C39.3735 13.6972 39.1358 13.6362 39.0517 13.7926C37.9689 15.8177 35.8353 17.1959 33.3788 17.1959H23.5332V23.7258C23.5332 28.4851 27.2622 32.8318 32.9029 32.8318C37.9237 32.8318 42.0084 28.7465 42.0084 23.7258V17.123C40.5083 16.8046 39.3735 15.4666 39.3735 13.875Z" fill="#F9CBB4"/>
<path d="M41.4173 5.20991C40.5473 5.27653 39.749 4.72946 39.5813 3.87299C39.299 2.43107 38.5854 0.999866 35.7958 0.999866H26.1184C22.5672 0.999866 19.6879 3.87864 19.6879 7.43039V14.6807C19.6879 16.1762 20.9 17.3884 22.3956 17.3884H33.3788C35.8353 17.3884 37.9688 16.0103 39.0517 13.9851C39.1358 13.8282 39.3735 13.8897 39.3735 14.0675C39.3735 15.894 40.8679 17.3884 42.6944 17.3884C43.6519 17.3884 44.4355 16.6053 44.4355 15.6478V8.09038C44.4355 6.35544 42.9213 5.09417 41.4173 5.20991Z" fill="#8D4412"/>
<path d="M63.2494 66.978H24.8362C23.6477 66.978 22.6755 67.9502 22.6755 69.1386V70.655C22.6755 71.8429 23.6477 72.8157 24.8362 72.8157H63.2494C64.4378 72.8157 65.41 71.8429 65.41 70.655V69.1386C65.41 67.9502 64.4378 66.978 63.2494 66.978Z" fill="#E0D9D5"/>
<path d="M63.2494 68.9613H24.8362C24.0785 68.9613 23.4095 68.5644 23.0233 67.9693C22.8043 68.3075 22.6755 68.7084 22.6755 69.1386V70.655C22.6755 71.8429 23.6477 72.8157 24.8362 72.8157H63.2494C64.4378 72.8157 65.41 71.8429 65.41 70.655V69.1386C65.41 68.7084 65.2813 68.3075 65.0622 67.9693C64.6766 68.5644 64.0076 68.9613 63.2494 68.9613Z" fill="#CEC8C6"/>
<path d="M59.6779 38.997H28.4083C27.2193 38.997 26.2471 39.9697 26.2471 41.1582V65.1058C26.2471 66.2942 27.2193 67.267 28.4083 67.267H59.6779C60.8663 67.267 61.8385 66.2942 61.8385 65.1058V41.1582C61.8385 39.9697 60.8663 38.997 59.6779 38.997Z" fill="#EDEBED"/>
<path d="M30.4797 65.1058V41.1582C30.4797 39.9697 31.4519 38.997 32.6403 38.997H28.4077C27.2193 38.997 26.2471 39.9697 26.2471 41.1582V65.1058C26.2471 66.2942 27.2193 67.267 28.4077 67.267H32.6403C31.4519 67.267 30.4797 66.2942 30.4797 65.1058Z" fill="#E0D9D5"/>
<path d="M66.4726 70.6104V69.0945C66.4726 67.3054 65.0171 65.8499 63.2274 65.8499H62.572C62.6911 65.5123 62.7566 65.1504 62.7566 64.7727V55.6599C62.7566 55.0614 62.2711 54.5759 61.6726 54.5759C61.0736 54.5759 60.5886 55.0614 60.5886 55.6599V64.7727C60.5886 65.3666 60.1053 65.8499 59.5114 65.8499H28.5308C27.9386 65.8499 27.4542 65.3633 27.4542 64.7727C27.4542 64.1138 27.4542 44.0228 27.4542 41.2587C27.4542 40.6647 27.9369 40.1815 28.5308 40.1815H59.5114C60.1053 40.1815 60.5886 40.6647 60.5886 41.2587V50.6013C60.5886 51.1997 61.0736 51.6853 61.6726 51.6853C62.2711 51.6853 62.7566 51.1997 62.7566 50.6013V41.2587C62.7566 39.469 61.3011 38.0135 59.5114 38.0135H47.6818L38.9817 34.6441V31.6959C41.1034 30.0953 42.5769 27.6823 42.9417 24.9238C45.4557 24.7465 47.2968 22.7084 47.2968 20.3123C47.2968 18.7213 46.4906 17.2992 45.2169 16.4647C45.3671 16.1209 45.4512 15.7421 45.4512 15.3435V8.00513C45.4512 5.64181 43.4007 3.88824 41.2762 4.05366C40.9877 4.07681 40.6585 3.9255 40.5941 3.59466C40.1018 1.07834 38.5199 -0.144531 35.7586 -0.144531H26.1156C21.9846 -0.144531 18.6231 3.21639 18.6231 7.3474V14.3798C18.6231 15.4056 19.0341 16.3366 19.6992 17.0186C18.7592 17.8734 18.1918 19.0539 18.1918 20.3123C18.1918 22.7106 20.034 24.7465 22.5446 24.9238C22.9031 27.6614 24.3519 30.0806 26.4922 31.6829V34.6447L13.5464 39.6632C13.5397 39.666 13.5329 39.6688 13.5261 39.6716C13.2924 39.7676 7.80469 42.0971 7.80469 48.5061V68.15C7.80469 71.2958 10.3639 73.8556 13.5097 73.8556H41.3304C41.9294 73.8556 42.4143 73.3701 42.4143 72.7716C42.4143 72.1726 41.9294 71.6876 41.3304 71.6876H24.8148C24.2209 71.6876 23.7382 71.2044 23.7382 70.6104V69.0945C23.7382 68.5006 24.2209 68.0179 24.8148 68.0179H63.2274C63.8214 68.0179 64.3047 68.5006 64.3047 69.0945V70.6104C64.3047 71.2044 63.8214 71.6876 63.2274 71.6876H46.389C45.7905 71.6876 45.305 72.1726 45.305 72.7716C45.305 73.3701 45.7905 73.8556 46.389 73.8556H63.2274C65.0166 73.8556 66.4726 72.3996 66.4726 70.6104ZM27.2329 36.685C27.4429 36.9447 28.0651 37.7126 28.3146 38.0203C26.9325 38.1117 25.7695 39.0805 25.4059 40.383L24.1554 37.8769L27.2329 36.685ZM37.1649 38.0135L38.2427 36.6833L41.3258 37.8769L41.2575 38.0135H37.1649ZM43.0331 22.7315V18.1336C43.1477 18.1167 43.3871 18.0619 43.5141 18.0196C45.8718 18.8873 45.5765 22.3183 43.0331 22.7315ZM20.7916 7.3474C20.7916 4.4116 23.1798 2.02344 26.1156 2.02344H35.7586C37.9 2.02344 38.2613 2.96346 38.4663 4.01075C38.7333 5.37759 40.0109 6.32551 41.4421 6.21542C42.3127 6.14936 43.2827 6.90759 43.2827 8.00513V15.3435C43.2827 16.6341 40.4073 15.925 40.4073 13.7689C40.4073 12.4873 38.6701 12.0091 38.0462 13.1761C37.1169 14.9138 35.3171 15.9939 33.3495 15.9939C21.4629 15.9939 22.3149 16.0131 22.0427 15.951C22.0405 15.9504 22.0388 15.9504 22.0365 15.9498C21.324 15.7827 20.7911 15.1431 20.7911 14.3798L20.7916 7.3474ZM20.3597 20.3123C20.3597 19.2718 21.1044 18.495 21.9112 18.1291C22.102 18.1539 22.2635 18.1624 22.4554 18.1624V22.7315C21.1953 22.5272 20.3597 21.4855 20.3597 20.3123ZM24.6234 23.5852V18.1624H33.3495C35.3752 18.1624 37.3416 17.3381 38.7638 15.8493C39.2267 16.7075 39.9675 17.3946 40.8646 17.7904V23.5852C40.8646 28.0019 37.2631 31.5745 32.8753 31.5745C27.9211 31.5745 24.6234 27.7325 24.6234 23.5852ZM36.8137 32.9475V35.0032L34.3748 38.0135H31.1064L28.6601 34.9941V32.9182C31.1731 33.97 34.1873 34.0564 36.8137 32.9475ZM14.3436 41.6798L22.1246 38.6633L25.2857 44.999V64.1093H18.5666C18.5666 63.062 18.5666 56.4187 18.5666 54.9914C18.5666 54.3924 18.0817 53.9074 17.4827 53.9074C16.8836 53.9074 16.3987 54.3924 16.3987 54.9914V59.7203C16.2056 59.6774 16.0057 59.6531 15.8002 59.6531H9.97266V48.5061C9.97266 43.6259 14.0901 41.7882 14.3436 41.6798ZM13.5097 71.6876C11.5591 71.6876 9.97266 70.1006 9.97266 68.1506V61.8211H15.8002C16.1299 61.8211 16.3987 62.0898 16.3987 62.4201V64.8297C16.3987 65.628 17.0485 66.2779 17.8468 66.2779H23.2052C22.2099 66.8487 21.5696 67.9174 21.5696 69.0945V70.6104C21.5696 70.6132 21.5702 70.6161 21.5702 70.6189C21.5713 70.9949 21.6391 71.3653 21.7531 71.6876H13.5097Z" fill="black"/>
<path d="M46 50C46 52.1216 44.0771 54 41.5 54C38.9229 54 37 52.1216 37 50C37 47.8784 38.9229 46 41.5 46C44.0771 46 46 47.8784 46 50Z" fill="#D9D9D9" stroke="black" stroke-width="2"/>
</g>
<defs>
<clipPath id="clip0_4738_999">
<rect width="74" height="74" fill="white"/>
</clipPath>
</defs>
</svg>
