<svg width="20" height="20" viewBox="0 0 20 20" fill="none" xmlns="http://www.w3.org/2000/svg">
<path fill-rule="evenodd" clip-rule="evenodd" d="M7.29232 5.20833C7.29232 3.71256 8.50488 2.5 10.0007 2.5C11.4964 2.5 12.709 3.71256 12.709 5.20833C12.709 6.7041 11.4964 7.91667 10.0007 7.91667C8.50488 7.91667 7.29232 6.7041 7.29232 5.20833ZM10.0007 1.25C7.81452 1.25 6.04232 3.02221 6.04232 5.20833C6.04232 7.39446 7.81452 9.16667 10.0007 9.16667C12.1868 9.16667 13.959 7.39446 13.959 5.20833C13.959 3.02221 12.1868 1.25 10.0007 1.25ZM10.0007 10.4167C8.06678 10.4167 6.21212 11.1849 4.84466 12.5523C3.47721 13.9198 2.70898 15.7745 2.70898 17.7083C2.70898 17.8741 2.77483 18.0331 2.89204 18.1503C3.00925 18.2675 3.16822 18.3333 3.33398 18.3333H16.6673C17.0125 18.3333 17.2923 18.0535 17.2923 17.7083C17.2923 15.7745 16.5241 13.9198 15.1566 12.5523C13.7892 11.1849 11.9345 10.4167 10.0007 10.4167ZM5.72855 13.4362C6.86158 12.3032 8.3983 11.6667 10.0007 11.6667C11.603 11.6667 13.1397 12.3032 14.2728 13.4362C15.2575 14.421 15.8672 15.7107 16.0099 17.0833L3.99138 17.0833C4.1341 15.7107 4.7438 14.421 5.72855 13.4362Z" fill="#0F172A"/>
</svg>
