<svg width="90" height="26" viewBox="0 0 90 26" fill="none" xmlns="http://www.w3.org/2000/svg">
<path d="M67.1182 24.9201L75.1822 1.08008H81.7742L89.8382 24.9201H84.4302L82.8302 20.0561H74.0942L72.4942 24.9201H67.1182ZM75.4702 15.7361H81.4542L77.8062 4.47208H79.1502L75.4702 15.7361Z" fill="#FF7710"/>
<path d="M56.1267 25.304C54.4201 25.304 52.8307 24.9947 51.3587 24.376C49.9081 23.7574 48.6387 22.8934 47.5507 21.784C46.4627 20.6747 45.6094 19.3734 44.9907 17.88C44.3934 16.3867 44.0947 14.7547 44.0947 12.984C44.0947 11.2134 44.3934 9.58138 44.9907 8.08805C45.5881 6.57338 46.4307 5.27205 47.5187 4.18405C48.6067 3.07471 49.8761 2.22138 51.3267 1.62404C52.7987 1.00538 54.3987 0.696045 56.1267 0.696045C57.8547 0.696045 59.4014 0.984045 60.7667 1.56005C62.1534 2.13605 63.3267 2.90405 64.2867 3.86404C65.2467 4.82404 65.9294 5.89071 66.3347 7.06404L61.9507 9.17605C61.5454 8.02405 60.8307 7.07471 59.8067 6.32804C58.8041 5.56004 57.5774 5.17604 56.1267 5.17604C54.7187 5.17604 53.4814 5.50671 52.4147 6.16805C51.3481 6.82938 50.5161 7.74671 49.9187 8.92005C49.3427 10.072 49.0547 11.4267 49.0547 12.984C49.0547 14.5414 49.3427 15.9067 49.9187 17.08C50.5161 18.2534 51.3481 19.1707 52.4147 19.832C53.4814 20.4934 54.7187 20.824 56.1267 20.824C57.5774 20.824 58.8041 20.4507 59.8067 19.704C60.8307 18.936 61.5454 17.976 61.9507 16.824L66.3347 18.936C65.9294 20.1094 65.2467 21.176 64.2867 22.136C63.3267 23.096 62.1534 23.864 60.7667 24.44C59.4014 25.016 57.8547 25.304 56.1267 25.304Z" fill="#FF7710"/>
<path d="M31.168 16.1676V9.1676H38.168V16.1676H31.168Z" fill="#FF7710"/>
<path d="M12.64 25.304C10.848 25.304 9.184 24.9947 7.648 24.376C6.112 23.7574 4.768 22.8934 3.616 21.784C2.48533 20.6534 1.6 19.3414 0.96 17.848C0.32 16.3547 0 14.7334 0 12.984C0 11.2347 0.309333 9.61338 0.928 8.12004C1.568 6.62671 2.45333 5.32538 3.584 4.21605C4.736 3.10671 6.08 2.24271 7.616 1.62404C9.152 1.00538 10.8267 0.696045 12.64 0.696045C14.4533 0.696045 16.128 1.00538 17.664 1.62404C19.2 2.24271 20.5333 3.10671 21.664 4.21605C22.816 5.32538 23.7013 6.62671 24.32 8.12004C24.96 9.61338 25.28 11.2347 25.28 12.984C25.28 14.7334 24.96 16.3547 24.32 17.848C23.68 19.3414 22.784 20.6534 21.632 21.784C20.5013 22.8934 19.168 23.7574 17.632 24.376C16.096 24.9947 14.432 25.304 12.64 25.304ZM12.64 20.824C13.728 20.824 14.7307 20.632 15.648 20.248C16.5867 19.864 17.408 19.3307 18.112 18.648C18.816 17.944 19.36 17.112 19.744 16.152C20.128 15.192 20.32 14.136 20.32 12.984C20.32 11.832 20.128 10.7867 19.744 9.84805C19.36 8.88805 18.816 8.05605 18.112 7.35205C17.408 6.64805 16.5867 6.11471 15.648 5.75204C14.7307 5.36804 13.728 5.17604 12.64 5.17604C11.552 5.17604 10.5387 5.36804 9.6 5.75204C8.68267 6.11471 7.872 6.64805 7.168 7.35205C6.464 8.05605 5.92 8.88805 5.536 9.84805C5.152 10.7867 4.96 11.832 4.96 12.984C4.96 14.136 5.152 15.192 5.536 16.152C5.92 17.112 6.464 17.944 7.168 18.648C7.872 19.3307 8.68267 19.864 9.6 20.248C10.5387 20.632 11.552 20.824 12.64 20.824Z" fill="#FF7710"/>
</svg>
